<svg width="534" height="620" viewBox="0 0 534 620" fill="none" xmlns="http://www.w3.org/2000/svg">
<path fill-rule="evenodd" clip-rule="evenodd" d="M272.779 223.109C277.315 226.56 280.014 230.943 277.069 235.878C274.585 240.042 268.881 240.084 262.792 238.553C263.705 241.137 264.772 243.667 265.989 246.127C268.639 251.482 270.859 255.349 272.651 257.727C276.061 262.252 282.362 257.929 291.554 244.76C295.182 239.561 301.122 236.464 307.461 236.464C308.041 236.464 308.619 236.523 309.186 236.64C313.813 237.592 316.792 242.115 315.839 246.743C305.626 296.351 297.52 323.415 291.522 327.935C281.922 335.169 273.001 367.145 273.001 367.145L219.113 359.33L213.127 335.826C211.305 328.672 211.003 321.215 212.24 313.937L225.623 235.24C226.517 229.981 228.173 224.881 230.538 220.101L235.584 209.905C239.541 201.908 247.945 197.103 256.844 197.748L304.986 201.24C309.082 201.538 312.658 204.127 314.219 207.926C316.493 213.458 313.851 219.786 308.319 222.06C303.8 223.917 291.954 224.266 272.779 223.109Z" fill="#8093B8"/>
<path fill-rule="evenodd" clip-rule="evenodd" d="M217.435 266.816L207.998 282.824C207.888 283.012 207.785 283.205 207.691 283.402L174.222 353.413L180.396 390.109L233.897 349.297L231.153 309.171L215.377 319.803L223.899 269.173C224.22 267.268 222.935 265.463 221.03 265.142C219.6 264.902 218.171 265.567 217.435 266.816Z" fill="#9AACD3"/>
<path fill-rule="evenodd" clip-rule="evenodd" d="M180.739 275.179C167.68 270.404 154.622 265.629 141.564 260.854C109.544 249.145 74.0943 265.611 62.3857 297.632C60.1583 303.723 58.9048 310.127 58.6712 316.609L56.245 383.936H194.8C185.426 311.431 180.739 275.179 180.739 275.179Z" fill="#CBDBFE"/>
<path fill-rule="evenodd" clip-rule="evenodd" d="M174.814 144.54L206.53 141.901L211.994 105.215C212.161 104.091 213.208 103.315 214.332 103.482C215.232 103.616 215.937 104.326 216.066 105.226L221.956 146.419C222.546 150.544 219.68 154.366 215.555 154.956C215.521 154.96 215.488 154.965 215.454 154.969L178.192 159.786C173.535 160.388 169.247 157.168 168.527 152.528C167.938 148.738 170.533 145.188 174.323 144.599C174.486 144.573 174.65 144.554 174.814 144.54Z" fill="#DFE9FF"/>
<mask id="mask0_256_538" style="mask-type:alpha" maskUnits="userSpaceOnUse" x="57" y="0" width="143" height="279">
<path d="M93.7601 275.439C91.5387 276.294 89.0903 276.661 86.5599 276.418C85.6213 276.329 84.6921 276.16 83.782 275.913C74.8721 273.5 69.6054 264.321 72.0185 255.411L75.7567 241.608L75.7027 241.638C72.7757 243.252 69.3199 243.611 66.1238 242.633C59.5987 240.637 55.927 233.729 57.9229 227.204L77.438 159.332C79.0455 151.428 81.9221 141.689 86.5667 127.582L87.1112 125.689L87.1334 125.866C92.8522 108.59 101.123 84.9356 112.796 50.581C113.013 49.9426 119.437 30.6456 119.655 30.0036C121.036 28.162 123.649 27.7888 125.491 29.17C126.237 29.7302 126.775 30.525 127.016 31.4269L131.316 47.4944L137.215 4.15435C137.573 1.52684 139.993 -0.313223 142.621 0.0444483C144.493 0.29929 146.041 1.62837 146.577 3.44016L147.435 6.3395L196.561 166.001C198.552 172.471 199.564 179.202 199.564 185.971V250.182C199.564 265.714 186.973 278.305 171.442 278.305H106.14C101.704 278.305 97.5001 277.275 93.7601 275.439Z" fill="white"/>
</mask>
<g mask="url(#mask0_256_538)">
<path d="M93.7601 275.439C91.5387 276.294 89.0903 276.661 86.5599 276.418C85.6213 276.329 84.6921 276.16 83.782 275.913C74.8721 273.5 69.6054 264.321 72.0185 255.411L75.7567 241.608L75.7027 241.638C72.7757 243.252 69.3199 243.611 66.1238 242.633C59.5987 240.637 55.927 233.729 57.9229 227.204L77.438 159.332C79.0455 151.428 81.9221 141.689 86.5667 127.582L87.1112 125.689L87.1334 125.866C92.8522 108.59 101.123 84.9356 112.796 50.581C113.013 49.9426 119.437 30.6456 119.655 30.0036C121.036 28.162 123.649 27.7888 125.491 29.17C126.237 29.7302 126.775 30.525 127.016 31.4269L131.316 47.4944L137.215 4.15435C137.573 1.52684 139.993 -0.313223 142.621 0.0444483C144.493 0.29929 146.041 1.62837 146.577 3.44016L147.435 6.3395L196.561 166.001C198.552 172.471 199.564 179.202 199.564 185.971V250.182C199.564 265.714 186.973 278.305 171.442 278.305H106.14C101.704 278.305 97.5001 277.275 93.7601 275.439Z" fill="#CBDBFE"/>
<path fill-rule="evenodd" clip-rule="evenodd" d="M197.85 173.36C196.478 169.702 194.42 168.216 191.676 168.901C188.933 169.587 187.104 172.102 186.189 176.446C181.961 169.575 174.187 165.713 166.157 166.493C163.811 166.721 161.229 167.066 158.41 167.53C141.764 170.265 133.858 186.702 133.031 195.309C132.327 202.627 132.905 197.739 133.068 216.23C133.103 220.209 131.127 230.787 127.141 247.965C125.258 256.083 130.312 264.191 138.43 266.075C139.517 266.327 140.629 266.458 141.745 266.465C156.869 266.562 165.396 266.507 167.326 266.301C177.534 265.214 179.747 262.872 187.255 262.872C193.588 262.872 196.675 264.472 196.515 267.673C207.479 263.37 213.412 252.51 214.312 235.092C215.211 217.675 209.724 197.097 197.85 173.36Z" fill="#B0BFDC"/>
</g>
<path fill-rule="evenodd" clip-rule="evenodd" d="M165.955 250.525H171.442L169.864 257.715C169.744 258.261 169.305 258.679 168.755 258.773C168.008 258.901 167.299 258.399 167.171 257.652L165.955 250.525ZM192.705 250.525H198.193L196.614 257.715C196.494 258.261 196.056 258.679 195.505 258.773C194.758 258.901 194.05 258.399 193.922 257.652L192.705 250.525Z" fill="white"/>
<mask id="mask1_256_538" style="mask-type:alpha" maskUnits="userSpaceOnUse" x="282" y="375" width="244" height="235">
<path d="M417.14 445.686C432.437 408.337 442.932 387.605 448.625 383.489C455.602 378.444 463.5 379.632 466.824 383.753C477.872 373.038 488.775 372.771 499.533 382.951C500.462 383.577 501.312 384.207 502.084 384.842C505.784 384.784 509.525 385.494 513.306 386.971C532.301 394.395 529.577 409.901 505.133 433.489L435.167 513.976C426.859 523.534 416.067 530.604 403.987 534.405C400.874 535.385 396.892 538.665 392.041 544.245C387.731 549.203 385.387 552.926 385.01 555.414C383.061 568.277 377.495 580.321 368.959 590.139L359.995 600.452C359.264 601.292 358.479 602.084 357.644 602.821C347.14 612.101 331.102 611.109 321.822 600.605L305.506 582.138L305.377 582.256L305.185 581.775L302.057 578.234L303.29 577.016L282.965 525.965L369.717 445.511L416.244 446.876C416.544 446.478 416.842 446.081 417.14 445.686Z" fill="white"/>
</mask>
<g mask="url(#mask1_256_538)">
<path d="M417.14 445.686C432.437 408.337 442.932 387.605 448.625 383.489C455.602 378.444 463.5 379.632 466.824 383.753C477.872 373.038 488.775 372.771 499.533 382.951C500.462 383.577 501.312 384.207 502.084 384.842C505.784 384.784 509.525 385.494 513.306 386.971C532.301 394.395 529.577 409.901 505.133 433.489L435.167 513.976C426.859 523.534 416.067 530.604 403.987 534.405C400.874 535.385 396.892 538.665 392.041 544.245C387.731 549.203 385.387 552.926 385.01 555.414C383.061 568.277 377.495 580.321 368.959 590.139L359.995 600.452C359.264 601.292 358.479 602.084 357.644 602.821C347.14 612.101 331.102 611.109 321.822 600.605L305.506 582.138L305.377 582.256L305.185 581.775L302.057 578.234L303.29 577.016L282.965 525.965L369.717 445.511L416.244 446.876C416.544 446.478 416.842 446.081 417.14 445.686Z" fill="#8093B8"/>
</g>
<mask id="mask2_256_538" style="mask-type:alpha" maskUnits="userSpaceOnUse" x="137" y="212" width="36" height="20">
<path d="M162.525 212.457H147.435C142.131 212.457 137.832 216.756 137.832 222.06C137.832 227.363 142.131 231.662 147.435 231.662H162.525C167.828 231.662 172.128 227.363 172.128 222.06C172.128 216.756 167.828 212.457 162.525 212.457Z" fill="white"/>
</mask>
<g mask="url(#mask2_256_538)">
<path d="M162.525 212.457H147.435C142.131 212.457 137.832 216.756 137.832 222.06C137.832 227.363 142.131 231.662 147.435 231.662H162.525C167.828 231.662 172.128 227.363 172.128 222.06C172.128 216.756 167.828 212.457 162.525 212.457Z" fill="white"/>
<path d="M172.471 220.002C172.471 215.835 169.093 212.457 164.926 212.457C160.759 212.457 157.381 215.835 157.381 220.002V224.117C157.381 228.284 160.759 231.662 164.926 231.662C169.093 231.662 172.471 228.284 172.471 224.117V220.002Z" fill="#2B2B2B"/>
</g>
<mask id="mask3_256_538" style="mask-type:alpha" maskUnits="userSpaceOnUse" x="190" y="212" width="10" height="20">
<path d="M199.564 212.457V231.662C194.45 231.662 190.304 227.517 190.304 222.403V221.717C190.304 216.603 194.45 212.457 199.564 212.457Z" fill="white"/>
</mask>
<g mask="url(#mask3_256_538)">
<path d="M199.564 212.457V231.662C194.45 231.662 190.304 227.517 190.304 222.403V221.717C190.304 216.603 194.45 212.457 199.564 212.457Z" fill="white"/>
<path d="M210.539 220.002C210.539 215.835 207.161 212.457 202.994 212.457C198.827 212.457 195.449 215.835 195.449 220.002V224.117C195.449 228.284 198.827 231.662 202.994 231.662C207.161 231.662 210.539 228.284 210.539 224.117V220.002Z" fill="#2B2B2B"/>
</g>
<path fill-rule="evenodd" clip-rule="evenodd" d="M351.874 502.942C362.932 501.241 372.276 493.842 376.468 483.468L376.567 483.222C380.861 472.594 379.651 460.533 373.33 450.971L370.051 446.011C382.077 450.384 395.372 444.18 399.745 432.154C399.847 431.873 399.944 431.59 400.035 431.305L404.004 418.917C384.23 420.827 370.283 419.455 362.163 414.802C354.043 410.148 347.184 404.432 341.586 397.654L335.069 408.628L351.874 502.942Z" fill="#9AACD3"/>
<mask id="mask4_256_538" style="mask-type:alpha" maskUnits="userSpaceOnUse" x="190" y="502" width="290" height="109">
<path d="M370.017 551.537C408.241 538.579 430.773 532.898 437.614 534.494C445.999 536.451 450.284 543.191 449.354 548.403C464.689 549.711 472.044 557.764 471.419 572.562L469.311 573.41C472.945 576.571 475.648 580.632 477.42 585.595C484.28 604.8 470.79 612.917 436.951 609.945H330.305C317.641 609.945 305.224 606.439 294.431 599.815C291.649 598.109 286.561 597.255 279.167 597.255C272.597 597.255 268.25 597.929 266.126 599.276C255.139 606.245 242.397 609.945 229.387 609.945H215.723C214.609 609.945 213.497 609.871 212.393 609.725C198.498 607.886 188.725 595.131 190.564 581.236L193.797 556.806L193.623 556.786L193.861 556.326L194.48 551.642L196.209 551.774L221.403 502.942L339.037 515.631L368.531 551.642C369.028 551.607 369.524 551.572 370.017 551.537Z" fill="white"/>
</mask>
<g mask="url(#mask4_256_538)">
<path d="M370.017 551.537C408.241 538.579 430.773 532.898 437.614 534.494C445.999 536.451 450.284 543.191 449.354 548.403C464.689 549.711 472.044 557.764 471.419 572.562L469.311 573.41C472.945 576.571 475.648 580.632 477.42 585.595C484.28 604.8 470.79 612.917 436.951 609.945H330.305C317.641 609.945 305.224 606.439 294.431 599.815C291.649 598.109 286.561 597.255 279.167 597.255C272.597 597.255 268.25 597.929 266.126 599.276C255.139 606.245 242.397 609.945 229.387 609.945H215.723C214.609 609.945 213.497 609.871 212.393 609.725C198.498 607.886 188.725 595.131 190.564 581.236L193.797 556.806L193.623 556.786L193.861 556.326L194.48 551.642L196.209 551.774L221.403 502.942L339.037 515.631L368.531 551.642C369.028 551.607 369.524 551.572 370.017 551.537Z" fill="#B0BFDC"/>
<path d="M472.689 572.117C472.419 571.731 471.894 571.113 471.088 570.342C469.778 569.089 468.134 567.844 466.132 566.688C456.59 561.179 442.742 559.544 423.921 564.025C423.184 564.201 422.728 564.941 422.904 565.678C423.079 566.415 423.819 566.87 424.556 566.695C442.719 562.37 455.85 563.92 464.76 569.064C466.568 570.108 468.037 571.221 469.191 572.325C469.588 572.704 469.915 573.053 470.177 573.361C470.324 573.535 470.412 573.649 470.444 573.693C470.879 574.313 471.735 574.463 472.355 574.028C472.975 573.592 473.125 572.737 472.689 572.117Z" fill="#7181A1"/>
<path d="M476.823 583.88C477.581 583.88 478.195 584.494 478.195 585.252C478.195 586.009 477.581 586.623 476.823 586.623C474.813 586.623 465.348 584.45 458.819 582.311C454.578 580.922 451.313 579.521 449.319 578.129C446.477 576.146 445.877 573.637 448.614 571.772C454.071 568.051 461.894 568.051 472.021 571.611C472.736 571.862 473.112 572.645 472.861 573.36C472.609 574.075 471.826 574.451 471.111 574.199C461.726 570.9 454.762 570.9 450.159 574.038C449.348 574.591 449.409 574.846 450.89 575.879C452.607 577.078 455.668 578.392 459.674 579.704C465.942 581.757 475.184 583.88 476.823 583.88ZM459.906 546.84C460.664 546.84 461.278 547.454 461.278 548.212C461.278 548.97 460.664 549.584 459.906 549.584C457.665 549.584 456.066 549.41 452.775 548.909L452.682 548.895C447.993 548.181 445.707 548.042 442.085 548.52C437.256 549.158 431.399 551.013 423.673 554.53C422.984 554.844 422.17 554.539 421.856 553.85C421.542 553.16 421.847 552.347 422.537 552.033C430.492 548.412 436.599 546.477 441.726 545.8C445.663 545.28 448.171 545.433 453.095 546.183L453.188 546.197C456.35 546.678 457.842 546.84 459.906 546.84Z" fill="#7181A1"/>
</g>
<path fill-rule="evenodd" clip-rule="evenodd" d="M185.394 203.217L195.157 233.786C196.165 236.94 194.425 240.313 191.271 241.321C190.714 241.498 190.135 241.594 189.551 241.604L186.363 241.66C183.712 241.706 181.525 239.594 181.479 236.943C181.478 236.92 181.478 236.897 181.478 236.874L181.376 203.849C181.373 202.712 182.291 201.788 183.427 201.785C184.325 201.782 185.121 202.361 185.394 203.217Z" fill="#7181A1"/>
<mask id="mask5_256_538" style="mask-type:alpha" maskUnits="userSpaceOnUse" x="33" y="306" width="337" height="246">
<path d="M59.6746 368.16L35.2606 476.855C28.6191 506.424 47.2055 535.779 76.7744 542.42C80.7215 543.307 84.7545 543.754 88.7999 543.754H144.876C170.491 543.754 193.971 529.482 205.765 506.744L229.439 461.101L194.457 551.642H210.536C228.111 551.642 244.726 543.62 255.656 529.856L266.135 516.66V529.007C266.135 541.508 276.269 551.642 288.77 551.642C302.357 551.642 314.491 543.136 319.124 530.364L324.095 516.66L329.621 527.296C337.394 542.255 352.85 551.642 369.708 551.642C353.717 503.937 344.571 465.64 342.272 436.751C339.972 407.862 342.601 364.306 350.16 306.084H282.254L159.818 379.477L59.6746 368.16Z" fill="white"/>
</mask>
<g mask="url(#mask5_256_538)">
<path d="M59.6746 368.16L35.2606 476.855C28.6191 506.424 47.2055 535.779 76.7744 542.42C80.7215 543.307 84.7545 543.754 88.7999 543.754H144.876C170.491 543.754 193.971 529.482 205.765 506.744L229.439 461.101L194.457 551.642H210.536C228.111 551.642 244.726 543.62 255.656 529.856L266.135 516.66V529.007C266.135 541.508 276.269 551.642 288.77 551.642C302.357 551.642 314.491 543.136 319.124 530.364L324.095 516.66L329.621 527.296C337.394 542.255 352.85 551.642 369.708 551.642C353.717 503.937 344.571 465.64 342.272 436.751C339.972 407.862 342.601 364.306 350.16 306.084H282.254L159.818 379.477L59.6746 368.16Z" fill="#9AACD3"/>
</g>
<path d="M141.203 257.325C144.844 253.684 147.578 251.897 149.15 251.897H198.879C199.636 251.897 200.25 251.283 200.25 250.525C200.25 249.768 199.636 249.153 198.879 249.153H149.15C146.606 249.153 143.395 251.253 139.263 255.385C138.727 255.921 138.727 256.79 139.263 257.325C139.798 257.861 140.667 257.861 141.203 257.325Z" fill="#7181A1"/>
<mask id="mask6_256_538" style="mask-type:alpha" maskUnits="userSpaceOnUse" x="139" y="212" width="32" height="20">
<path d="M170.843 217.258H139.117C140.777 214.388 143.88 212.457 147.435 212.457H162.525C166.079 212.457 169.183 214.388 170.843 217.258V217.258ZM170.407 227.547C168.671 230.035 165.788 231.662 162.525 231.662H147.435C144.172 231.662 141.289 230.035 139.553 227.547H170.407Z" fill="white"/>
</mask>
<g mask="url(#mask6_256_538)">
<path d="M170.843 217.258H139.117C140.777 214.388 143.88 212.457 147.435 212.457H162.525C166.079 212.457 169.183 214.388 170.843 217.258V217.258ZM170.407 227.547C168.671 230.035 165.788 231.662 162.525 231.662H147.435C144.172 231.662 141.289 230.035 139.553 227.547H170.407Z" fill="#7181A1"/>
</g>
<path fill-rule="evenodd" clip-rule="evenodd" d="M347.028 271.57L289.628 307.467L373.211 323.698L409.814 296.394C417.591 290.592 423.757 282.899 427.725 274.045L437.655 251.89C440.927 244.59 440.565 236.174 436.679 229.182L431.038 219.032L430.76 219.206C429.68 213.117 428.396 205.873 426.907 197.475C426.086 192.845 423.242 188.823 419.151 186.505L415.322 184.335L408.691 181.162L408.087 175.244L368.674 140.379C368.558 140.277 368.44 140.177 368.32 140.079C363.574 136.223 356.601 136.945 352.745 141.691C349.282 145.953 349.092 151.862 351.966 156.283C348.927 156.892 346.202 158.874 344.761 161.885C344.553 162.32 344.376 162.769 344.231 163.229C342.227 169.605 345.368 176.464 351.503 179.113L385.052 193.597C387.087 213.767 388.105 223.851 388.105 223.851C388.105 223.851 354.355 249.096 344.424 250.847C337.804 252.014 332.741 250.479 329.237 246.24L343.284 204.501C343.324 204.381 343.363 204.26 343.4 204.138C345.292 197.854 341.732 191.225 335.448 189.332C328.877 187.353 321.924 190.956 319.751 197.465C306.822 236.194 300.993 259.157 302.262 266.353C304.349 278.191 289.066 307.66 289.066 307.66L347.028 271.57Z" fill="#B0BFDC"/>
<mask id="mask7_256_538" style="mask-type:alpha" maskUnits="userSpaceOnUse" x="191" y="212" width="9" height="20">
<path d="M199.564 217.258H191.246C192.907 214.388 196.01 212.457 199.564 212.457V217.258ZM199.564 231.662C196.301 231.662 193.418 230.035 191.683 227.547H199.564V231.662Z" fill="white"/>
</mask>
<g mask="url(#mask7_256_538)">
<path d="M199.564 217.258H191.246C192.907 214.388 196.01 212.457 199.564 212.457V217.258ZM199.564 231.662C196.301 231.662 193.418 230.035 191.683 227.547H199.564V231.662Z" fill="#7181A1"/>
</g>
<path fill-rule="evenodd" clip-rule="evenodd" d="M378.547 124.348L332.985 122.998C328.105 122.854 323.893 126.394 323.196 131.227L308.569 232.691L365.529 239.799L374.46 233.611L387.779 135.235C388.491 129.98 384.807 125.142 379.552 124.431C379.219 124.386 378.883 124.358 378.547 124.348Z" fill="#2B2B2B"/>
<path d="M342.615 230.977C338.637 230.977 335.412 227.752 335.412 223.775C335.412 219.797 338.637 216.572 342.615 216.572C346.592 216.572 349.817 219.797 349.817 223.775C349.817 227.752 346.592 230.977 342.615 230.977ZM342.615 228.233C345.077 228.233 347.073 226.237 347.073 223.775C347.073 221.312 345.077 219.316 342.615 219.316C340.152 219.316 338.156 221.312 338.156 223.775C338.156 226.237 340.152 228.233 342.615 228.233ZM361.727 128.67C361.925 128.677 362.037 128.668 362.086 128.655C362.084 128.655 362.082 128.655 362.103 128.638C362.18 128.574 362.265 128.444 362.338 128.242C362.446 127.943 362.493 127.638 362.522 126.814L362.525 126.708L363.35 123.345L365.349 123.835L364.574 126.993C364.537 127.942 364.459 128.429 364.273 128.942C364.082 129.471 363.796 129.909 363.412 130.225C362.94 130.615 362.447 130.754 361.655 130.726L348.032 130.251C347.24 130.223 346.758 130.05 346.314 129.628C345.954 129.286 345.699 128.829 345.545 128.288C345.39 127.744 345.349 127.236 345.384 126.215L345.388 126.109L346.213 122.746L348.211 123.237L347.437 126.392C347.414 127.138 347.441 127.432 347.524 127.724C347.583 127.932 347.659 128.067 347.731 128.136C347.751 128.155 347.749 128.155 347.746 128.153C347.794 128.17 347.905 128.187 348.104 128.194L361.727 128.67Z" fill="white"/>
<mask id="mask8_256_538" style="mask-type:alpha" maskUnits="userSpaceOnUse" x="0" y="543" width="186" height="67">
<path d="M39.9577 566.127L0 609.944H185.883L166.997 577.689C154.691 556.67 132.162 543.754 107.805 543.754H90.64C71.3516 543.754 52.9546 551.875 39.9577 566.127Z" fill="white"/>
</mask>
<g mask="url(#mask8_256_538)">
<path d="M39.9577 566.127L0 609.944H185.883L166.997 577.689C154.691 556.67 132.162 543.754 107.805 543.754H90.64C71.3516 543.754 52.9546 551.875 39.9577 566.127Z" fill="#DFE9FF"/>
<path d="M22.3083 578.922L24.5372 576.521C40.5827 591.577 57.435 599.068 75.1425 599.068C89.3535 599.068 105.126 592.216 115.439 580.662C127.699 566.925 131.598 547.957 124.754 525.104L127.882 524.157C135.049 548.089 130.905 568.251 117.87 582.855C106.928 595.114 90.2675 602.352 75.1425 602.352C56.5555 602.352 38.9279 594.517 22.3083 578.922ZM165.37 570.964L166.613 574.16C146.758 581.882 138.561 594.5 141.617 612.4L138.236 612.977C134.89 593.379 144.07 579.247 165.37 570.964Z" fill="white"/>
<path d="M27.1096 565.707C40.9887 578.68 55.7247 585.204 71.2691 585.204C83.9354 585.204 97.8769 579.171 107.035 568.95C117.945 556.773 121.414 539.966 115.424 520.042L112.285 520.977C117.954 539.834 114.729 555.463 104.59 566.778C96.0626 576.296 83.0145 581.942 71.2691 581.942C56.6113 581.942 42.6551 575.763 29.3522 563.329L27.1096 565.707Z" fill="white"/>
</g>
<path fill-rule="evenodd" clip-rule="evenodd" d="M202.994 166.158C206.081 178.504 202.994 184.334 192.705 184.334C185.846 184.334 178.987 181.133 172.128 174.731C175.786 181.133 173.728 184.334 165.955 184.334C154.294 184.334 152.579 177.092 152.579 176.446C152.579 175.801 152.158 164.78 154.637 162.385C155.911 161.154 161.747 161.154 172.147 162.385C190.654 156.669 200.936 157.927 202.994 166.158Z" fill="#CBDBFE"/>
<path fill-rule="evenodd" clip-rule="evenodd" d="M120.405 199.852C123.492 212.198 120.405 218.029 110.116 218.029C103.257 218.029 96.3982 214.828 89.539 208.426C93.1972 214.828 91.1395 218.029 83.3658 218.029C71.7052 218.029 69.9904 210.786 69.9904 210.141C69.9904 209.495 69.5695 198.475 72.0482 196.079C73.3221 194.848 79.1586 194.848 89.5578 196.079C108.065 190.363 118.347 191.621 120.405 199.852Z" fill="#CBDBFE"/>
<path fill-rule="evenodd" clip-rule="evenodd" d="M352.217 112.999L344.329 94.4794H343.3C327.39 94.4794 314.492 81.5815 314.492 65.671V32.4041C314.492 16.4937 327.39 3.5957 343.3 3.5957H432.469C448.38 3.5957 461.278 16.4937 461.278 32.4041V65.671C461.278 81.5815 448.38 94.4794 432.469 94.4794H365.936L352.217 112.999Z" fill="#DFE9FF"/>
<path fill-rule="evenodd" clip-rule="evenodd" d="M286.481 303.601C286.481 303.601 303.286 274.972 301.821 263.041C300.93 255.788 307.954 233.162 322.891 195.162C325.402 188.776 332.535 185.542 338.993 187.862C345.582 190.23 349.362 197.148 347.795 203.971L339.347 240.761C338.428 244.761 340.926 248.748 344.926 249.667C345.63 249.828 346.353 249.886 347.073 249.839" fill="#B0BFDC"/>
<path fill-rule="evenodd" clip-rule="evenodd" d="M163.027 205.437L140.315 209.514C139.942 209.581 139.585 209.333 139.518 208.96C139.499 208.852 139.506 208.74 139.538 208.635L140.747 204.74C141.697 201.679 144.257 199.391 147.405 198.79L155.435 197.254L159.095 199.081L158.996 196.574L160.892 196.211C163.127 195.784 165.285 197.249 165.712 199.484C165.752 199.69 165.775 199.9 165.783 200.11L165.848 201.939C165.909 203.645 164.707 205.136 163.027 205.437ZM193.088 197.457C191.64 196.997 190.668 195.639 190.699 194.12L190.761 191.018C190.767 190.722 190.819 190.429 190.914 190.149C191.425 188.64 193.063 187.831 194.573 188.343L194.517 190.85L196.581 189.023L199.215 189.916C202.163 190.915 204.33 193.443 204.867 196.509L205.542 200.367C205.561 200.476 205.554 200.588 205.52 200.693C205.405 201.054 205.02 201.254 204.659 201.139L193.088 197.457Z" fill="#CBDBFE"/>
<path fill-rule="evenodd" clip-rule="evenodd" d="M180.216 274.765L191.839 268.585L193.245 279.778C193.518 281.954 192.831 284.14 191.363 285.769C188.573 288.865 183.802 289.112 180.707 286.323L178.098 283.971L176.703 290.036C176.021 293.002 174.138 295.552 171.503 297.076C166.256 300.111 159.543 298.318 156.508 293.071L150.924 283.417L143.548 298.692C142.1 301.691 139.369 303.87 136.123 304.616C130.216 305.974 124.327 302.285 122.97 296.378L119.731 282.284L114.35 290.623C112.549 293.415 109.58 295.24 106.275 295.588C100.247 296.221 94.8472 291.847 94.214 285.819L92.8442 272.78C104.003 271.782 111.797 271.795 116.226 272.817C117.384 273.085 118.362 273.433 119.158 273.861C121.745 272.681 125.34 272.333 129.944 272.817C134.107 273.255 139.743 274.441 146.851 276.375L146.171 275.2L181.4 269.62L180.216 274.765Z" fill="#CBDBFE"/>
<path d="M121.73 296.803C123.257 303.448 129.882 307.598 136.528 306.07C140.179 305.231 143.252 302.78 144.881 299.406L151.131 286.463L155.418 293.875C158.832 299.777 166.384 301.795 172.287 298.381C175.251 296.666 177.37 293.798 178.137 290.461L179.01 286.669L179.886 287.459C180.449 287.966 181.316 287.921 181.823 287.358C182.331 286.795 182.285 285.928 181.723 285.421L179.114 283.07C178.337 282.369 177.093 282.762 176.859 283.781L175.464 289.846C174.867 292.441 173.218 294.672 170.913 296.006C166.322 298.661 160.448 297.092 157.793 292.501L152.209 282.848C151.658 281.895 150.265 281.947 149.786 282.938L142.41 298.213C141.143 300.837 138.753 302.744 135.913 303.396C130.744 304.584 125.592 301.357 124.404 296.188L121.165 282.094C120.893 280.912 119.333 280.638 118.675 281.657L113.295 289.997C111.718 292.439 109.12 294.037 106.229 294.34C100.955 294.895 96.2296 291.068 95.6755 285.793L94.3057 272.754C94.2266 272 93.5516 271.453 92.7981 271.533C92.0446 271.612 91.4979 272.287 91.5771 273.04L92.9469 286.08C93.6592 292.861 99.7341 297.781 106.516 297.069C110.233 296.679 113.573 294.625 115.6 291.484L119.219 285.876L121.73 296.803Z" fill="#B0BFDC"/>
<path fill-rule="evenodd" clip-rule="evenodd" d="M95.9354 151.91L64.4382 156.474L50.8621 121.956C50.4461 120.899 49.2515 120.379 48.1939 120.795C47.3471 121.128 46.8196 121.977 46.8968 122.884L50.4242 164.345C50.7775 168.497 54.4297 171.577 58.5818 171.224C58.6155 171.221 58.6492 171.218 58.6829 171.214L96.0729 167.525C100.746 167.064 104.2 162.963 103.858 158.279C103.58 154.454 100.252 151.578 96.4264 151.857C96.2622 151.869 96.0984 151.887 95.9354 151.91Z" fill="#DFE9FF"/>
<path fill-rule="evenodd" clip-rule="evenodd" d="M79.1998 270.595L155.703 376.391L285.419 270.596C286.966 269.334 288.58 268.157 290.255 267.068L302.189 259.311C305.84 256.938 310.607 257.199 313.978 259.957C317.641 262.954 320.177 267.108 321.168 271.736L321.694 274.189L330.924 269.669C335.516 267.42 341.062 269.319 343.311 273.911C344.573 276.488 344.569 279.504 343.301 282.077L354.737 280.125C356.481 279.827 358.254 279.729 360.02 279.832L387.873 281.456C392.789 281.743 396.542 285.961 396.256 290.878C396.225 291.405 396.147 291.929 396.024 292.443L392.503 307.082C392.173 308.452 391.498 309.714 390.541 310.748L364.607 338.769C362.979 340.527 361.24 342.178 359.4 343.712L157.583 511.893C152.151 516.419 144.237 516.334 138.904 511.692L76.3814 457.27C68.1645 450.117 63.4472 439.757 63.4472 428.863L60.1993 431.482C55.9198 434.934 49.7876 434.842 45.6134 431.264C41.2086 427.488 39.3489 421.528 40.8254 415.917L43.5557 405.542L40.1071 408.434C36.1525 411.751 30.2579 411.234 26.9412 407.28C26.9349 407.272 26.9285 407.264 26.9222 407.257C23.1851 402.772 22.003 396.687 23.7893 391.129L27.0937 380.849L22.7382 383.753C18.7037 386.442 13.3245 385.87 9.94584 382.392C6.43502 378.778 5.51926 373.372 7.64395 368.804L52.1111 273.186C55.7852 265.286 65.1681 261.86 73.0684 265.534C75.5107 266.67 77.6215 268.412 79.1998 270.595Z" fill="#CBDBFE"/>
<path d="M123.922 330.704C123.502 330.073 122.651 329.901 122.02 330.321C121.389 330.74 121.217 331.591 121.636 332.222L151.473 377.15C151.911 377.809 152.816 377.962 153.446 377.483L170.594 364.451C171.197 363.992 171.315 363.131 170.856 362.528C170.398 361.925 169.537 361.808 168.934 362.266L152.95 374.414L123.922 330.704Z" fill="#B0BFDC"/>
<path d="M355.595 499.826C355.54 499.628 355.027 497.924 354.844 497.306C354.364 495.684 353.887 494.014 353.379 492.154C351.945 486.901 350.55 481.176 349.243 474.935C344.015 449.972 341.586 423.913 343.479 398.295C343.535 397.539 342.968 396.882 342.212 396.826C341.457 396.77 340.799 397.337 340.743 398.093C338.828 423.995 341.28 450.301 346.558 475.497C347.877 481.795 349.284 487.573 350.733 492.877C351.246 494.757 351.728 496.444 352.213 498.084C352.402 498.724 352.907 500.4 352.955 500.57C353.16 501.299 353.918 501.724 354.647 501.519C355.376 501.313 355.801 500.556 355.595 499.826Z" fill="#CBDBFE"/>
<path d="M130.749 49.1003L141.784 81.2004C142.031 81.9169 142.811 82.2981 143.528 82.0518C144.244 81.8055 144.625 81.025 144.379 80.3085L133.344 48.2083C133.098 47.4918 132.317 47.1107 131.601 47.357C130.884 47.6033 130.503 48.3838 130.749 49.1003Z" fill="#7181A1"/>
<mask id="mask9_256_538" style="mask-type:alpha" maskUnits="userSpaceOnUse" x="82" y="199" width="30" height="38">
<path d="M105.14 236.413C90.377 235.8 82.9957 229.717 82.9957 218.162C82.9957 206.277 90.8056 200.043 106.425 199.459C106.035 200.189 105.747 201.179 105.631 202.511C105.244 206.939 107.338 209.117 111.914 209.046C103.962 215.281 99.924 220.876 99.8006 225.832C99.6925 230.178 101.592 234.093 105.14 236.413Z" fill="white"/>
</mask>
<g mask="url(#mask9_256_538)">
<path d="M105.14 236.413C90.377 235.8 82.9957 229.717 82.9957 218.162C82.9957 206.277 90.8056 200.043 106.425 199.459C106.035 200.189 105.747 201.179 105.631 202.511C105.244 206.939 107.338 209.117 111.914 209.046C103.962 215.281 99.924 220.876 99.8006 225.832C99.6925 230.178 101.592 234.093 105.14 236.413Z" fill="#B0BFDC"/>
</g>
<path d="M406.424 177.362C406.297 176.615 406.8 175.907 407.547 175.78C408.294 175.653 409.002 176.156 409.129 176.903L416.72 221.607C417.837 228.183 415.462 234.867 410.447 239.264L392.905 254.643C392.335 255.143 391.468 255.086 390.969 254.516C390.469 253.946 390.526 253.08 391.096 252.58L408.638 237.201C412.937 233.432 414.973 227.703 414.015 222.067L406.424 177.362ZM429.4 219.873C429.281 219.125 429.792 218.422 430.541 218.304C431.289 218.186 431.992 218.697 432.11 219.445L434.115 232.146C434.864 236.889 433.809 241.741 431.158 245.745L418.18 265.344C417.762 265.976 416.911 266.149 416.279 265.73C415.647 265.312 415.474 264.461 415.893 263.829L428.87 244.23C431.143 240.798 432.047 236.64 431.405 232.574L429.4 219.873ZM386.122 192.204C386.321 192.935 385.89 193.69 385.159 193.889C384.428 194.088 383.674 193.657 383.475 192.926L381.417 185.381C381.218 184.65 381.649 183.896 382.38 183.697C383.111 183.497 383.865 183.928 384.064 184.659L386.122 192.204ZM330.269 188.4C330.297 187.642 330.933 187.051 331.69 187.079C332.447 187.107 333.039 187.743 333.011 188.5C332.532 201.533 327.586 209.2 318.188 211.059C317.445 211.206 316.723 210.723 316.576 209.979C316.429 209.236 316.912 208.514 317.656 208.367C325.634 206.79 329.833 200.281 330.269 188.4Z" fill="#7181A1"/>
<path d="M348.592 68.672C344.859 68.672 341.741 68.112 339.24 66.992C336.739 65.8347 334.853 64.3413 333.584 62.512C332.315 60.6453 331.643 58.648 331.568 56.52C331.568 56.184 331.68 55.904 331.904 55.68C332.165 55.4187 332.464 55.288 332.8 55.288H342.152C342.712 55.288 343.141 55.4 343.44 55.624C343.739 55.848 343.944 56.072 344.056 56.296C344.429 56.9307 344.821 57.472 345.232 57.92C345.643 58.3307 346.128 58.648 346.688 58.872C347.248 59.0587 347.901 59.152 348.648 59.152C349.469 59.152 350.235 58.984 350.944 58.648C351.653 58.2747 352.213 57.752 352.624 57.08C353.072 56.3707 353.296 55.512 353.296 54.504C353.296 53.6453 353.091 52.8987 352.68 52.264C352.307 51.592 351.765 51.0507 351.056 50.64C350.384 50.2293 349.581 50.024 348.648 50.024C347.901 50.024 347.285 50.1173 346.8 50.304C346.352 50.4533 345.979 50.64 345.68 50.864C345.381 51.088 345.101 51.2933 344.84 51.48C344.616 51.6293 344.355 51.704 344.056 51.704H334.816C334.48 51.704 334.181 51.592 333.92 51.368C333.696 51.1067 333.584 50.808 333.584 50.472L335.712 30.592C335.787 29.9947 336.011 29.5467 336.384 29.248C336.795 28.9493 337.243 28.8 337.728 28.8H361.472C361.883 28.8 362.219 28.9493 362.48 29.248C362.779 29.5093 362.928 29.8453 362.928 30.256V36.864C362.928 37.2373 362.779 37.5733 362.48 37.872C362.219 38.1707 361.883 38.32 361.472 38.32H345.176L344.616 43.92C345.549 43.2853 346.539 42.8187 347.584 42.52C348.667 42.184 350.16 42.016 352.064 42.016C353.819 42.016 355.499 42.3333 357.104 42.968C358.747 43.5653 360.203 44.4427 361.472 45.6C362.779 46.72 363.805 48.064 364.552 49.632C365.299 51.2 365.672 52.936 365.672 54.84C365.672 57.3787 365.019 59.6933 363.712 61.784C362.405 63.8747 360.483 65.5547 357.944 66.824C355.405 68.056 352.288 68.672 348.592 68.672ZM386.95 68.56C384.188 68.56 381.78 68.1867 379.726 67.44C377.673 66.6933 375.956 65.6667 374.574 64.36C373.23 63.0533 372.185 61.5227 371.438 59.768C370.692 57.976 370.244 56.0533 370.094 54C370.057 52.992 370.02 51.7973 369.982 50.416C369.982 49.0347 369.982 47.6533 369.982 46.272C370.02 44.8533 370.057 43.6213 370.094 42.576C370.244 40.5227 370.692 38.6373 371.438 36.92C372.222 35.1653 373.324 33.6533 374.742 32.384C376.161 31.0773 377.878 30.0693 379.894 29.36C381.91 28.6133 384.262 28.24 386.95 28.24C389.601 28.24 391.934 28.6133 393.95 29.36C396.004 30.0693 397.721 31.0773 399.102 32.384C400.521 33.6533 401.604 35.1653 402.35 36.92C403.134 38.6373 403.601 40.5227 403.75 42.576C403.825 43.6213 403.862 44.8533 403.862 46.272C403.862 47.6533 403.862 49.0347 403.862 50.416C403.862 51.7973 403.825 52.992 403.75 54C403.601 56.0533 403.153 57.976 402.406 59.768C401.697 61.5227 400.652 63.0533 399.27 64.36C397.889 65.6667 396.172 66.6933 394.118 67.44C392.065 68.1867 389.676 68.56 386.95 68.56ZM386.95 58.984C388.444 58.984 389.508 58.4987 390.142 57.528C390.814 56.5573 391.188 55.288 391.262 53.72C391.3 52.6373 391.318 51.4613 391.318 50.192C391.356 48.9227 391.356 47.6533 391.318 46.384C391.318 45.0773 391.3 43.92 391.262 42.912C391.188 41.4187 390.833 40.1867 390.198 39.216C389.564 38.208 388.481 37.6853 386.95 37.648C385.42 37.6853 384.337 38.208 383.702 39.216C383.068 40.1867 382.713 41.4187 382.638 42.912C382.601 43.92 382.564 45.0773 382.526 46.384C382.526 47.6533 382.526 48.9227 382.526 50.192C382.564 51.4613 382.601 52.6373 382.638 53.72C382.713 55.288 383.068 56.5573 383.702 57.528C384.374 58.4987 385.457 58.984 386.95 58.984ZM426.107 68.56C423.344 68.56 420.936 68.1867 418.883 67.44C416.829 66.6933 415.112 65.6667 413.731 64.36C412.387 63.0533 411.341 61.5227 410.595 59.768C409.848 57.976 409.4 56.0533 409.251 54C409.213 52.992 409.176 51.7973 409.139 50.416C409.139 49.0347 409.139 47.6533 409.139 46.272C409.176 44.8533 409.213 43.6213 409.251 42.576C409.4 40.5227 409.848 38.6373 410.595 36.92C411.379 35.1653 412.48 33.6533 413.899 32.384C415.317 31.0773 417.035 30.0693 419.051 29.36C421.067 28.6133 423.419 28.24 426.107 28.24C428.757 28.24 431.091 28.6133 433.107 29.36C435.16 30.0693 436.877 31.0773 438.259 32.384C439.677 33.6533 440.76 35.1653 441.507 36.92C442.291 38.6373 442.757 40.5227 442.907 42.576C442.981 43.6213 443.019 44.8533 443.019 46.272C443.019 47.6533 443.019 49.0347 443.019 50.416C443.019 51.7973 442.981 52.992 442.907 54C442.757 56.0533 442.309 57.976 441.562 59.768C440.853 61.5227 439.808 63.0533 438.427 64.36C437.045 65.6667 435.328 66.6933 433.275 67.44C431.221 68.1867 428.832 68.56 426.107 68.56ZM426.107 58.984C427.6 58.984 428.664 58.4987 429.299 57.528C429.971 56.5573 430.344 55.288 430.419 53.72C430.456 52.6373 430.475 51.4613 430.475 50.192C430.512 48.9227 430.512 47.6533 430.475 46.384C430.475 45.0773 430.456 43.92 430.419 42.912C430.344 41.4187 429.989 40.1867 429.355 39.216C428.72 38.208 427.637 37.6853 426.107 37.648C424.576 37.6853 423.493 38.208 422.859 39.216C422.224 40.1867 421.869 41.4187 421.795 42.912C421.757 43.92 421.72 45.0773 421.683 46.384C421.683 47.6533 421.683 48.9227 421.683 50.192C421.72 51.4613 421.757 52.6373 421.795 53.72C421.869 55.288 422.224 56.5573 422.859 57.528C423.531 58.4987 424.613 58.984 426.107 58.984Z" fill="white"/>
</svg>
